<?xml version="1.0" encoding="UTF-8"?>
<svg version="1.1" xmlns="http://www.w3.org/2000/svg" width="1080" height="1080">
<path d="M0 0 C8.91 0 17.82 0 27 0 C27.72307794 4.33846765 28.12543948 7.8568879 28.12698364 12.16954041 C28.12980347 13.38669739 28.13262329 14.60385437 28.13552856 15.8578949 C28.13358428 17.19424453 28.13153611 18.53059402 28.12939453 19.86694336 C28.13075096 21.2854924 28.13253225 22.70404109 28.13470459 24.12258911 C28.13926052 27.97337481 28.13749415 31.82413368 28.1343255 35.67491984 C28.1317801 39.73767207 28.13414663 43.80042211 28.13571167 47.86317444 C28.1375322 54.71192837 28.13513551 61.56067153 28.13037109 68.40942383 C28.12498303 76.24331067 28.1266513 84.07717126 28.1321975 91.91105741 C28.13679774 98.68782995 28.13734446 105.46459475 28.13475883 112.24136835 C28.13322636 116.26477233 28.13291509 120.28816419 28.13629532 124.31156731 C28.14722827 139.56479764 28.09712181 154.81337443 27.65892005 170.06132805 C27.60319167 172.00265369 27.55287832 173.94413247 27.50277901 175.88561153 C26.63923441 202.15232937 16.47148677 225.49406682 -2.75 243.6875 C-24.42072943 262.43972562 -51.15029745 267.64258638 -79 266 C-84.2225691 265.33473073 -89.07644382 263.8455747 -94 262 C-95.01449219 261.649375 -96.02898437 261.29875 -97.07421875 260.9375 C-109.61176505 256.21748257 -120.55444117 248.41247456 -130 239 C-130.68449219 238.33871094 -131.36898438 237.67742187 -132.07421875 236.99609375 C-148.55803899 219.92934863 -156.38325672 193.81315896 -156.3125 170.5625 C-156.32861328 169.50740234 -156.34472656 168.45230469 -156.36132812 167.36523438 C-156.36768126 157.04138394 -154.03049294 148.08977584 -149.3125 138.9375 C-148.96437256 138.25631104 -148.61624512 137.57512207 -148.25756836 136.87329102 C-140.65136119 122.43569382 -129.07005616 112.20240142 -113.39404297 107.16210938 C-110.93436576 106.4223438 -108.47115556 105.70036955 -106 105 C-99.66827318 132.49922843 -98.24120197 151.2709799 -113.42578125 175.9140625 C-114.28072842 177.27800594 -115.13870302 178.6400574 -116 180 C-116.39751465 180.62874023 -116.7950293 181.25748047 -117.20458984 181.90527344 C-123.46967404 191.73483702 -123.46967404 191.73483702 -126 193 C-127.60089073 187.31651644 -128.41792301 182.15001677 -128.4375 176.25 C-128.44330078 175.00331543 -128.44330078 175.00331543 -128.44921875 173.73144531 C-128.23388545 161.32735002 -125.46835078 149.11592608 -123 137 C-135.40431239 156.02874958 -141.0451017 179.56392734 -136.875 202.0625 C-132.46137343 220.25074716 -122.24151409 237.25122175 -106.06665039 247.28808594 C-88.09043211 257.78609734 -66.42846928 261.44446527 -46.0625 256.5 C-30.17149666 251.47992776 -13.19880379 243.06787431 -5 228 C-0.08595452 216.86541278 -0.42138227 205.72125277 -0.45410156 193.7878418 C-0.44535354 191.66771694 -0.4348635 189.54759868 -0.42277527 187.42749023 C-0.39504537 181.707315 -0.39150771 175.9873566 -0.39249516 170.26712394 C-0.38935484 164.27600041 -0.3637134 158.28497293 -0.34051514 152.29389954 C-0.30003714 140.96476577 -0.2796337 129.63568944 -0.26654124 118.30649453 C-0.2506434 105.40191318 -0.21221603 92.49742918 -0.17194796 79.59290445 C-0.08966122 53.06196618 -0.03629808 26.53103762 0 0 Z " fill="#008D37" transform="translate(605,338)"/>
<path d="M0 0 C0.66 0 1.32 0 2 0 C3.07568421 32.49393761 -4.31281749 58.27939958 -26.49609375 82.75390625 C-42.39468585 99.34474474 -63.1589561 110.20070648 -86 113 C-80.98583456 104.21732657 -73.8957896 96.77911141 -67.1171875 89.33203125 C-65.21948831 87.24176111 -63.35266585 85.13013885 -61.5 83 C-58.91346688 80.02608289 -56.27805875 77.10219257 -53.625 74.1875 C-49.62563142 69.75889766 -45.83080267 65.19242993 -42.08203125 60.55078125 C-40.26426987 58.32376777 -38.40131222 56.15542555 -36.5 54 C-33.86841135 51.21256629 -33.86841135 51.21256629 -33 48 C-33.59425781 48.54527344 -34.18851563 49.09054687 -34.80078125 49.65234375 C-39.1908338 53.646404 -43.61696308 57.53943997 -48.25 61.25 C-54.00946426 65.90658812 -59.37948699 70.92834177 -64.77734375 75.9921875 C-67.22988279 78.29104448 -69.71196996 80.54524663 -72.25 82.75 C-72.85199219 83.27464844 -73.45398438 83.79929687 -74.07421875 84.33984375 C-75.52666332 85.59195114 -76.98941568 86.83211589 -78.45703125 88.06640625 C-88.12045969 96.39694801 -93.55528338 105.07914713 -98 117 C-100.73855236 114.26144764 -100.72030523 111.70107727 -101 108 C-101.06574219 107.15308594 -101.13148438 106.30617188 -101.19921875 105.43359375 C-102.036254 84.21907973 -91.5051078 66.26090809 -79 50 C-78.51273438 49.32710938 -78.02546875 48.65421875 -77.5234375 47.9609375 C-64.78388458 31.46985979 -43.37963875 23.18281627 -24.61645508 16.06835938 C-14.93568122 12.30530884 -7.21622048 7.44172737 0 0 Z " fill="#90B83B" transform="translate(591,445)"/>
<path d="M0 0 C4.62 0 9.24 0 14 0 C16.82516579 11.58317973 18.93116942 23.2618757 21 35 C22.0840595 33.37391076 23.16808515 31.74779894 24.25195312 30.12158203 C25.16932137 28.74585589 26.08729291 27.37053186 27.00585938 25.99560547 C28.99454367 23.01751547 30.97622207 20.03653329 32.9296875 17.03515625 C33.70699219 15.84212891 33.70699219 15.84212891 34.5 14.625 C34.9434375 13.93664062 35.386875 13.24828125 35.84375 12.5390625 C37 11 37 11 39 10 C42.38962663 9.62337482 44.35158949 9.61161198 47.30859375 11.3828125 C51.17448314 15.14209536 53.57789195 19.5342334 56.25 24.1875 C57.31672316 26.01489836 58.38438061 27.84175177 59.453125 29.66796875 C59.91879883 30.47516357 60.38447266 31.2823584 60.86425781 32.11401367 C61.86213836 33.9424607 61.86213836 33.9424607 63 35 C63.26478149 33.56950317 63.26478149 33.56950317 63.53491211 32.11010742 C64.19064035 28.57064368 64.84916971 25.03170591 65.50854492 21.49291992 C65.79348918 19.96148646 66.07767446 18.42991158 66.36108398 16.89819336 C66.7686722 14.6960749 67.17899064 12.4944801 67.58984375 10.29296875 C67.77896584 9.26625313 67.77896584 9.26625313 67.97190857 8.21879578 C68.50138969 5.39411915 69.08960396 2.73118811 70 0 C74.95 0 79.9 0 85 0 C83.45606324 11.38353374 81.58187551 22.69371234 79.59594727 34.00756836 C79.23763746 36.05952744 78.883861 38.11228284 78.53442383 40.16577148 C78.02377886 43.16572156 77.49975896 46.16305961 76.97265625 49.16015625 C76.81942398 50.07475113 76.66619171 50.98934601 76.50831604 51.93165588 C75.69021359 56.49095124 74.93111187 60.26285608 72 64 C69.87890625 64.62890625 69.87890625 64.62890625 67.5625 64.5625 C66.41974609 64.56443359 66.41974609 64.56443359 65.25390625 64.56640625 C60.81677544 63.45135605 58.88982002 59.95515322 56.6328125 56.2421875 C55.7909508 54.78987631 54.95524356 53.33398408 54.125 51.875 C53.24234221 50.35147286 52.35953021 48.82803505 51.4765625 47.3046875 C50.65085331 45.86990005 49.82531806 44.43501248 49 43 C47.83952354 40.99640186 46.67421089 38.99558009 45.5 37 C44.83484375 35.8553125 44.83484375 35.8553125 44.15625 34.6875 C43.09429404 32.84503754 43.09429404 32.84503754 41 32 C40.74549072 32.69834961 40.49098145 33.39669922 40.22875977 34.11621094 C38.85710254 37.33536754 37.18034251 40.16442209 35.33984375 43.140625 C34.81494102 43.99210114 34.81494102 43.99210114 34.2794342 44.86077881 C33.54416297 46.05187533 32.80702517 47.24182143 32.06811523 48.43066406 C30.93382118 50.25591979 29.8053148 52.08465328 28.67773438 53.9140625 C23.16059724 62.83940276 23.16059724 62.83940276 22 64 C20.31391034 64.07205511 18.62499341 64.08386068 16.9375 64.0625 C15.55884766 64.04896484 15.55884766 64.04896484 14.15234375 64.03515625 C13.08693359 64.01775391 13.08693359 64.01775391 12 64 C9.08832253 58.02282059 7.88123207 52.15074435 6.73828125 45.625 C6.54276169 44.5417041 6.34724213 43.4584082 6.14579773 42.34228516 C5.73595583 40.06029663 5.33025716 37.77756054 4.9284668 35.49414062 C4.31420247 32.00965744 3.6844788 28.52822662 3.05273438 25.046875 C2.6553266 22.82308149 2.25881207 20.59912812 1.86328125 18.375 C1.6758284 17.33939941 1.48837555 16.30379883 1.29524231 15.23681641 C1.12473862 14.25890137 0.95423492 13.28098633 0.77856445 12.2734375 C0.62772903 11.42185059 0.47689362 10.57026367 0.32148743 9.69287109 C-0.06173002 6.4829316 0 3.23273369 0 0 Z " fill="#3F3F3F" transform="translate(113,635)"/>
<path d="M0 0 C2.27570402 0.00318589 4.55013726 -0.02044659 6.82568359 -0.0456543 C8.28010905 -0.04792527 9.73453798 -0.04863172 11.18896484 -0.04760742 C12.49961914 -0.05058838 13.81027344 -0.05356934 15.16064453 -0.05664062 C18.81476833 0.34869388 19.97832653 0.73588438 22.51708984 3.31567383 C22.99810791 5.99223328 22.99810791 5.99223328 22.97119141 9.25585938 C22.97088928 10.47689865 22.97058716 11.69793793 22.97027588 12.95597839 C22.94963074 14.27479507 22.9289856 15.59361176 22.90771484 16.95239258 C22.9002531 18.31573152 22.89455985 19.67908119 22.89056396 21.04243469 C22.87530194 24.62824187 22.83601657 28.21339943 22.79174805 31.7989502 C22.75080681 35.45873222 22.73255549 39.11861936 22.71240234 42.77856445 C22.66952152 49.95793115 22.59916854 57.13662866 22.51708984 64.31567383 C17.89708984 64.31567383 13.27708984 64.31567383 8.51708984 64.31567383 C8.51708984 59.36567383 8.51708984 54.41567383 8.51708984 49.31567383 C-3.36291016 49.31567383 -15.24291016 49.31567383 -27.48291016 49.31567383 C-27.48291016 54.26567383 -27.48291016 59.21567383 -27.48291016 64.31567383 C-32.10291016 64.31567383 -36.72291016 64.31567383 -41.48291016 64.31567383 C-41.58268144 58.96294431 -41.65479965 53.61077026 -41.70263672 48.25732422 C-41.72260359 46.4408219 -41.74978702 44.62438261 -41.78466797 42.80810547 C-42.03017675 29.68421715 -42.04715405 18.02564774 -32.40087891 7.96801758 C-23.20983245 0.04986554 -11.52544902 -0.03384676 0 0 Z M-24.79541016 21.94067383 C-27.16940635 26.18804779 -27.16940635 26.18804779 -27.48291016 35.31567383 C-15.60291016 35.31567383 -3.72291016 35.31567383 8.51708984 35.31567383 C8.51708984 28.05567383 8.51708984 20.79567383 8.51708984 13.31567383 C4.55708984 13.25379883 4.55708984 13.25379883 0.51708984 13.19067383 C-0.29759766 13.17246582 -1.11228516 13.15425781 -1.95166016 13.13549805 C-11.02081307 13.06791542 -18.56957962 14.87351485 -24.79541016 21.94067383 Z " fill="#90B83B" transform="translate(867.48291015625,634.684326171875)"/>
<path d="M0 0 C2.27570402 0.00318589 4.55013726 -0.02044659 6.82568359 -0.0456543 C8.28010905 -0.04792527 9.73453798 -0.04863172 11.18896484 -0.04760742 C12.49961914 -0.05058838 13.81027344 -0.05356934 15.16064453 -0.05664062 C18.81476833 0.34869388 19.97832653 0.73588438 22.51708984 3.31567383 C22.99810791 5.99223328 22.99810791 5.99223328 22.97119141 9.25585938 C22.97088928 10.47689865 22.97058716 11.69793793 22.97027588 12.95597839 C22.94963074 14.27479507 22.9289856 15.59361176 22.90771484 16.95239258 C22.9002531 18.31573152 22.89455985 19.67908119 22.89056396 21.04243469 C22.87530194 24.62824187 22.83601657 28.21339943 22.79174805 31.7989502 C22.75080681 35.45873222 22.73255549 39.11861936 22.71240234 42.77856445 C22.66952152 49.95793115 22.59916854 57.13662866 22.51708984 64.31567383 C17.89708984 64.31567383 13.27708984 64.31567383 8.51708984 64.31567383 C8.51708984 59.36567383 8.51708984 54.41567383 8.51708984 49.31567383 C-3.36291016 49.31567383 -15.24291016 49.31567383 -27.48291016 49.31567383 C-27.48291016 54.26567383 -27.48291016 59.21567383 -27.48291016 64.31567383 C-32.10291016 64.31567383 -36.72291016 64.31567383 -41.48291016 64.31567383 C-41.58268144 58.96294431 -41.65479965 53.61077026 -41.70263672 48.25732422 C-41.72260359 46.4408219 -41.74978702 44.62438261 -41.78466797 42.80810547 C-42.03017675 29.68421715 -42.04715405 18.02564774 -32.40087891 7.96801758 C-23.20983245 0.04986554 -11.52544902 -0.03384676 0 0 Z M-24.79541016 21.94067383 C-27.16940635 26.18804779 -27.16940635 26.18804779 -27.48291016 35.31567383 C-15.60291016 35.31567383 -3.72291016 35.31567383 8.51708984 35.31567383 C8.51708984 28.05567383 8.51708984 20.79567383 8.51708984 13.31567383 C4.55708984 13.25379883 4.55708984 13.25379883 0.51708984 13.19067383 C-0.29759766 13.17246582 -1.11228516 13.15425781 -1.95166016 13.13549805 C-11.02081307 13.06791542 -18.56957962 14.87351485 -24.79541016 21.94067383 Z " fill="#3F3F3F" transform="translate(330.48291015625,634.684326171875)"/>
<path d="M0 0 C4.95 0 9.9 0 15 0 C15 8.25 15 16.5 15 25 C26.55 25 38.1 25 50 25 C50 16.75 50 8.5 50 0 C54.95 0 59.9 0 65 0 C65 21.12 65 42.24 65 64 C60.05 64 55.1 64 50 64 C50 55.75 50 47.5 50 39 C38.45 39 26.9 39 15 39 C15 47.25 15 55.5 15 64 C10.05 64 5.1 64 0 64 C0 42.88 0 21.76 0 0 Z " fill="#3F3F3F" transform="translate(513,635)"/>
<path d="M0 0 C1.65125885 0.00033989 1.65125885 0.00033989 3.33587646 0.00068665 C4.51828918 0.0161705 5.7007019 0.03165436 6.91894531 0.04760742 C8.13406799 0.05185226 9.34919067 0.05609711 10.60113525 0.06047058 C14.4833387 0.07726741 18.36502367 0.11492279 22.24707031 0.15307617 C24.87857323 0.16812165 27.51008429 0.18181029 30.14160156 0.1940918 C36.59362435 0.22717444 43.04525941 0.27896485 49.49707031 0.34057617 C49.49707031 4.63057617 49.49707031 8.92057617 49.49707031 13.34057617 C34.64707031 13.34057617 19.79707031 13.34057617 4.49707031 13.34057617 C4.82707031 25.55057617 5.15707031 37.76057617 5.49707031 50.34057617 C27.27707031 50.83557617 27.27707031 50.83557617 49.49707031 51.34057617 C49.49707031 55.63057617 49.49707031 59.92057617 49.49707031 64.34057617 C43.07416289 64.41494628 36.6515083 64.46928279 30.22827148 64.50537109 C28.04495882 64.52042173 25.8616762 64.54086692 23.6784668 64.56689453 C20.53329026 64.60344135 17.38851482 64.62034015 14.24316406 64.63354492 C13.27309921 64.64902878 12.30303436 64.66451263 11.30357361 64.6804657 C4.06342358 64.6822481 -0.76209091 63.72391424 -6.37792969 58.84057617 C-9.31650665 55.38342681 -9.63045654 52.84295292 -9.67993164 48.45776367 C-9.69276688 47.46663574 -9.70560211 46.47550781 -9.71882629 45.4543457 C-9.72621323 44.38555176 -9.73360016 43.31675781 -9.74121094 42.21557617 C-9.74928268 41.11713379 -9.75735443 40.01869141 -9.76567078 38.88696289 C-9.77950293 36.56357398 -9.79022897 34.24016482 -9.7980957 31.91674805 C-9.81536214 28.3545125 -9.85926307 24.79319222 -9.90332031 21.23120117 C-9.91344253 18.97599967 -9.9219601 16.72079028 -9.92871094 14.46557617 C-9.94621902 13.39678223 -9.96372711 12.32798828 -9.98176575 11.22680664 C-9.97884018 10.23567871 -9.97591461 9.24455078 -9.97290039 8.22338867 C-9.98169975 6.9145874 -9.98169975 6.9145874 -9.99067688 5.5793457 C-9.50292969 3.34057617 -9.50292969 3.34057617 -7.81748962 1.5566864 C-5.00394499 0.07840089 -3.17189758 -0.02182498 0 0 Z " fill="#90B83B" transform="translate(760.5029296875,634.659423828125)"/>
<path d="M0 0 C1.65125885 0.00033989 1.65125885 0.00033989 3.33587646 0.00068665 C4.51828918 0.0161705 5.7007019 0.03165436 6.91894531 0.04760742 C8.13406799 0.05185226 9.34919067 0.05609711 10.60113525 0.06047058 C14.4833387 0.07726741 18.36502367 0.11492279 22.24707031 0.15307617 C24.87857323 0.16812165 27.51008429 0.18181029 30.14160156 0.1940918 C36.59362435 0.22717444 43.04525941 0.27896485 49.49707031 0.34057617 C49.49707031 4.63057617 49.49707031 8.92057617 49.49707031 13.34057617 C34.64707031 13.34057617 19.79707031 13.34057617 4.49707031 13.34057617 C4.82707031 25.55057617 5.15707031 37.76057617 5.49707031 50.34057617 C27.27707031 50.83557617 27.27707031 50.83557617 49.49707031 51.34057617 C49.49707031 55.63057617 49.49707031 59.92057617 49.49707031 64.34057617 C43.07416289 64.41494628 36.6515083 64.46928279 30.22827148 64.50537109 C28.04495882 64.52042173 25.8616762 64.54086692 23.6784668 64.56689453 C20.53329026 64.60344135 17.38851482 64.62034015 14.24316406 64.63354492 C13.27309921 64.64902878 12.30303436 64.66451263 11.30357361 64.6804657 C4.06342358 64.6822481 -0.76209091 63.72391424 -6.37792969 58.84057617 C-9.31650665 55.38342681 -9.63045654 52.84295292 -9.67993164 48.45776367 C-9.69276688 47.46663574 -9.70560211 46.47550781 -9.71882629 45.4543457 C-9.72621323 44.38555176 -9.73360016 43.31675781 -9.74121094 42.21557617 C-9.74928268 41.11713379 -9.75735443 40.01869141 -9.76567078 38.88696289 C-9.77950293 36.56357398 -9.79022897 34.24016482 -9.7980957 31.91674805 C-9.81536214 28.3545125 -9.85926307 24.79319222 -9.90332031 21.23120117 C-9.91344253 18.97599967 -9.9219601 16.72079028 -9.92871094 14.46557617 C-9.94621902 13.39678223 -9.96372711 12.32798828 -9.98176575 11.22680664 C-9.97884018 10.23567871 -9.97591461 9.24455078 -9.97290039 8.22338867 C-9.98169975 6.9145874 -9.98169975 6.9145874 -9.99067688 5.5793457 C-9.50292969 3.34057617 -9.50292969 3.34057617 -7.81748962 1.5566864 C-5.00394499 0.07840089 -3.17189758 -0.02182498 0 0 Z " fill="#3F3F3F" transform="translate(223.5029296875,634.659423828125)"/>
<path d="M0 0 C4.95 0 9.9 0 15 0 C15.03867187 2.63742187 15.03867187 2.63742187 15.078125 5.328125 C15.13440102 7.63544166 15.19174846 9.94273237 15.25 12.25 C15.26417969 13.40886719 15.27835938 14.56773437 15.29296875 15.76171875 C15.32519531 16.87675781 15.35742188 17.99179687 15.390625 19.140625 C15.41157227 20.16704102 15.43251953 21.19345703 15.45410156 22.25097656 C16.14836908 25.74715378 17.11873348 26.9291276 20 29 C22.72612741 29.61119411 22.72612741 29.61119411 25.71875 29.53125 C26.81574219 29.53640625 27.91273438 29.5415625 29.04296875 29.546875 C30.75419922 29.52367187 30.75419922 29.52367187 32.5 29.5 C33.64082031 29.51546875 34.78164063 29.5309375 35.95703125 29.546875 C37.60251953 29.53914062 37.60251953 29.53914062 39.28125 29.53125 C40.28220703 29.52673828 41.28316406 29.52222656 42.31445312 29.51757812 C45.78559679 28.84859407 46.94355129 27.85465192 49 25 C49.63735866 22.20942676 49.63735866 22.20942676 49.609375 19.140625 C49.64160156 18.02558594 49.67382812 16.91054688 49.70703125 15.76171875 C49.72121094 14.60285156 49.73539063 13.44398438 49.75 12.25 C49.79447266 10.48849609 49.79447266 10.48849609 49.83984375 8.69140625 C49.91049657 5.7946405 49.95751736 2.8973158 50 0 C54.95 0 59.9 0 65 0 C65.08129387 4.16706353 65.14064936 8.33252423 65.1875 12.5 C65.21263672 13.67304687 65.23777344 14.84609375 65.26367188 16.0546875 C65.33242738 24.21367466 64.75147286 30.62494015 59.6875 37.3125 C53.73195685 43.26804315 48.09509879 43.50639642 40 44 C40 50.6 40 57.2 40 64 C35.05 64 30.1 64 25 64 C25 57.4 25 50.8 25 44 C23.35 43.938125 21.7 43.87625 20 43.8125 C12.89535798 43.16329848 8.5454228 40.61240761 3.625 35.5625 C0.53384315 30.68798342 -0.24971891 26.22048505 -0.1953125 20.5078125 C-0.18886719 19.30898438 -0.18242188 18.11015625 -0.17578125 16.875 C-0.15902344 15.6375 -0.14226563 14.4 -0.125 13.125 C-0.11597656 11.86429688 -0.10695313 10.60359375 -0.09765625 9.3046875 C-0.07415894 6.20304319 -0.03829009 3.10149697 0 0 Z " fill="#3F3F3F" transform="translate(595,635)"/>
<path d="M0 0 C8.91 0 17.82 0 27 0 C27.06915508 6.51082233 27.12880455 13.02035202 27.16479492 19.53125 C27.17981037 21.74255714 27.20022891 23.95383485 27.22631836 26.16503906 C27.26302154 29.35749609 27.2797993 32.54955675 27.29296875 35.7421875 C27.30845261 36.71864227 27.32393646 37.69509705 27.33988953 38.70114136 C27.34207442 47.76707165 25.68640227 56.0050957 19.87109375 63.18359375 C16.38816312 66.56472682 12.27810962 68.77066041 8 71 C6.845 71.61875 5.69 72.2375 4.5 72.875 C2 74 2 74 0 74 C0 49.58 0 25.16 0 0 Z " fill="#008D37" transform="translate(563,377)"/>
<path d="M0 0 C21.12 0 42.24 0 64 0 C64 4.29 64 8.58 64 13 C55.75 13 47.5 13 39 13 C39 29.83 39 46.66 39 64 C34.38 64 29.76 64 25 64 C25 47.17 25 30.34 25 13 C16.75 13 8.5 13 0 13 C0 8.71 0 4.42 0 0 Z " fill="#3F3F3F" transform="translate(435,635)"/>
<path d="M0 0 C8.91 0 17.82 0 27 0 C27.06911476 5.69300797 27.12877484 11.38454249 27.16479492 17.07763672 C27.17982075 19.01160635 27.20024726 20.94554226 27.22631836 22.87939453 C27.26297591 25.66968136 27.27978868 28.45951511 27.29296875 31.25 C27.30845261 32.10553467 27.32393646 32.96106934 27.33988953 33.8425293 C27.34156419 39.90467861 26.71111631 45.82495807 22.60368347 50.63525391 C18.8546215 54.24814572 14.22341557 56.76794596 9.75 59.375 C8.82803833 59.91253906 8.82803833 59.91253906 7.88745117 60.4609375 C5.04543161 62.05930523 3.31400964 63 0 63 C0 42.21 0 21.42 0 0 Z " fill="#008D37" transform="translate(520,409)"/>
<path d="M0 0 C4.62 0 9.24 0 14 0 C14 16.83 14 33.66 14 51 C29.18 51 44.36 51 60 51 C60 55.29 60 59.58 60 64 C52.09801902 64.09879376 44.19639663 64.17143488 36.29394531 64.21972656 C33.60495534 64.237599 30.91634174 64.26544475 28.22753906 64.30175781 C24.36512439 64.35021615 20.50328792 64.37295626 16.640625 64.390625 C15.4363385 64.41127014 14.232052 64.43191528 12.99127197 64.45318604 C11.30998199 64.45363922 11.30998199 64.45363922 9.59472656 64.45410156 C8.60877502 64.46298401 7.62282349 64.47186646 6.60699463 64.48101807 C3.16897786 63.84666763 2.02516584 62.82804572 0 60 C-0.48101807 57.2411499 -0.48101807 57.2411499 -0.45410156 54.03808594 C-0.45379944 52.83714294 -0.45349731 51.63619995 -0.45318604 50.39886475 C-0.43254089 49.10708313 -0.41189575 47.81530151 -0.390625 46.484375 C-0.38316071 45.14488571 -0.37746866 43.80538548 -0.37347412 42.46588135 C-0.35823213 38.94748564 -0.31896418 35.42975485 -0.2746582 31.91162109 C-0.23367364 28.31877639 -0.2154564 24.7258238 -0.1953125 21.1328125 C-0.15246729 14.08824433 -0.0821301 7.04423564 0 0 Z " fill="#90B83B" transform="translate(677,635)"/>
<path d="M0 0 C4.62 0 9.24 0 14 0 C14 16.83 14 33.66 14 51 C29.18 51 44.36 51 60 51 C60 55.29 60 59.58 60 64 C52.09801902 64.09879376 44.19639663 64.17143488 36.29394531 64.21972656 C33.60495534 64.237599 30.91634174 64.26544475 28.22753906 64.30175781 C24.36512439 64.35021615 20.50328792 64.37295626 16.640625 64.390625 C15.4363385 64.41127014 14.232052 64.43191528 12.99127197 64.45318604 C11.30998199 64.45363922 11.30998199 64.45363922 9.59472656 64.45410156 C8.60877502 64.46298401 7.62282349 64.47186646 6.60699463 64.48101807 C3.16897786 63.84666763 2.02516584 62.82804572 0 60 C-0.48101807 57.2411499 -0.48101807 57.2411499 -0.45410156 54.03808594 C-0.45379944 52.83714294 -0.45349731 51.63619995 -0.45318604 50.39886475 C-0.43254089 49.10708313 -0.41189575 47.81530151 -0.390625 46.484375 C-0.38316071 45.14488571 -0.37746866 43.80538548 -0.37347412 42.46588135 C-0.35823213 38.94748564 -0.31896418 35.42975485 -0.2746582 31.91162109 C-0.23367364 28.31877639 -0.2154564 24.7258238 -0.1953125 21.1328125 C-0.15246729 14.08824433 -0.0821301 7.04423564 0 0 Z " fill="#3F3F3F" transform="translate(374,635)"/>
<path d="M0 0 C1.65125885 0.00045319 1.65125885 0.00045319 3.33587646 0.00091553 C4.51828918 0.02156067 5.7007019 0.04220581 6.91894531 0.06347656 C8.13406799 0.06913635 9.34919067 0.07479614 10.60113525 0.08062744 C14.48351374 0.10302422 18.36497059 0.15322969 22.24707031 0.20410156 C24.87856741 0.22416216 27.51007896 0.24241369 30.14160156 0.25878906 C36.59377978 0.30290031 43.04526877 0.37195326 49.49707031 0.45410156 C49.49707031 4.74410156 49.49707031 9.03410156 49.49707031 13.45410156 C34.64707031 13.45410156 19.79707031 13.45410156 4.49707031 13.45410156 C4.49707031 30.28410156 4.49707031 47.11410156 4.49707031 64.45410156 C-0.12292969 64.45410156 -4.74292969 64.45410156 -9.50292969 64.45410156 C-9.59333407 56.70018716 -9.6667046 48.9465612 -9.71017838 41.19226456 C-9.73104481 37.59151871 -9.75934389 33.99115241 -9.8046875 30.390625 C-9.84818094 26.91522243 -9.8720739 23.44018469 -9.88243866 19.96453094 C-9.89341584 17.99464373 -9.92463669 16.02490309 -9.95611572 14.05523682 C-9.95641785 12.85429382 -9.95671997 11.65335083 -9.95703125 10.41601562 C-9.9659137 9.35900452 -9.97479614 8.30199341 -9.98394775 7.21295166 C-8.96811481 1.38670308 -5.51623401 -0.05060765 0 0 Z " fill="#90B83B" transform="translate(920.5029296875,634.5458984375)"/>
<path d="M0 0 C12.87 0 25.74 0 39 0 C39 4.62 39 9.24 39 14 C26.13 14 13.26 14 0 14 C0 9.38 0 4.76 0 0 Z " fill="#90B83B" transform="translate(766,660)"/>
<path d="M0 0 C12.87 0 25.74 0 39 0 C39 4.62 39 9.24 39 14 C26.13 14 13.26 14 0 14 C0 9.38 0 4.76 0 0 Z " fill="#3F3F3F" transform="translate(229,660)"/>
<path d="M0 0 C12.54 0 25.08 0 38 0 C38 4.62 38 9.24 38 14 C25.46 14 12.92 14 0 14 C0 9.38 0 4.76 0 0 Z " fill="#90B83B" transform="translate(927,660)"/>
<path d="M0 0 C1.65 0 3.3 0 5 0 C6.87014121 2.16448775 8.31512026 4.10319582 9.8125 6.5 C10.21919922 7.12003906 10.62589844 7.74007812 11.04492188 8.37890625 C12.04550555 9.90921069 13.02485338 11.45336222 14 13 C14.33 8.71 14.66 4.42 15 0 C16.32 0 17.64 0 19 0 C19 7.26 19 14.52 19 22 C13.73064773 20.94612955 13.17512082 20.50007742 10.36132812 16.29101562 C9.7802832 15.37352539 9.7802832 15.37352539 9.1875 14.4375 C8.78080078 13.82197266 8.37410156 13.20644531 7.95507812 12.57226562 C6.9566127 11.05694751 5.97646735 9.52958612 5 8 C4.67 12.62 4.34 17.24 4 22 C2.68 22 1.36 22 0 22 C0 14.74 0 7.48 0 0 Z " fill="#000000" transform="translate(438,721)"/>
<path d="M0 0 C2.9375 1.25 2.9375 1.25 5 3 C5.8125 5.1875 5.8125 5.1875 6 7 C4.68 7 3.36 7 2 7 C1.566875 6.484375 1.13375 5.96875 0.6875 5.4375 C-1.08265315 3.60843301 -1.08265315 3.60843301 -4.5625 4.0625 C-7.93702013 4.66659423 -7.93702013 4.66659423 -9.5 6.5625 C-10.24780401 10.20804454 -10.15717268 13.44582676 -9 17 C-6.94572012 19.3160651 -6.94572012 19.3160651 -4 20 C-0.72757736 19.6039603 -0.72757736 19.6039603 2 18 C2.96877057 15.96756452 2.96877057 15.96756452 3 14 C1.02 14 -0.96 14 -3 14 C-3 13.34 -3 12.68 -3 12 C0.3 12 3.6 12 7 12 C7 15.63 7 19.26 7 23 C4.43571485 23.13559675 1.87864784 23.23433188 -0.6875 23.3125 C-1.40873047 23.35439453 -2.12996094 23.39628906 -2.87304688 23.43945312 C-6.9944816 23.53354981 -8.55430468 23.33795127 -11.95703125 20.7578125 C-14.85308098 16.84842223 -15.29571982 13.79066116 -15 9 C-12.2905056 1.29933171 -8.08810088 -1.18753862 0 0 Z " fill="#000000" transform="translate(492,720)"/>
<path d="M0 0 C2.578125 -0.061875 5.15625 -0.12375 7.8125 -0.1875 C9.02450073 -0.22846802 9.02450073 -0.22846802 10.26098633 -0.27026367 C15.50286665 -0.33142223 15.50286665 -0.33142223 17.9921875 1.328125 C19.56719097 3.94092145 19.30434902 6.01737965 19 9 C18.443125 10.0209375 18.443125 10.0209375 17.875 11.0625 C16.70125517 13.06789721 16.70125517 13.06789721 17.875 15.5 C18.24625 16.325 18.6175 17.15 19 18 C19 19.32 19 20.64 19 22 C17.68 22 16.36 22 15 22 C14.814375 21.16855469 14.814375 21.16855469 14.625 20.3203125 C13.95585396 17.96993703 13.30065582 16.07596532 12 14 C9.26345587 12.65061926 7.07885104 12.40378374 4 12 C4 15.3 4 18.6 4 22 C2.68 22 1.36 22 0 22 C0 14.74 0 7.48 0 0 Z M4 2 C4 4.64 4 7.28 4 10 C9.7974423 10.24428343 9.7974423 10.24428343 15 8 C14.65555119 5.52733235 14.65555119 5.52733235 14 3 C11.71294169 1.85647084 10.40735238 1.89665561 7.875 1.9375 C5.956875 1.9684375 5.956875 1.9684375 4 2 Z " fill="#000000" transform="translate(910,721)"/>
<path d="M0 0 C2.578125 -0.061875 5.15625 -0.12375 7.8125 -0.1875 C9.02450073 -0.22846802 9.02450073 -0.22846802 10.26098633 -0.27026367 C15.50286665 -0.33142223 15.50286665 -0.33142223 17.9921875 1.328125 C19.56719097 3.94092145 19.30434902 6.01737965 19 9 C18.443125 10.0209375 18.443125 10.0209375 17.875 11.0625 C16.70125517 13.06789721 16.70125517 13.06789721 17.875 15.5 C18.24625 16.325 18.6175 17.15 19 18 C19 19.32 19 20.64 19 22 C17.68 22 16.36 22 15 22 C14.814375 21.16855469 14.814375 21.16855469 14.625 20.3203125 C13.95585396 17.96993703 13.30065582 16.07596532 12 14 C9.26345587 12.65061926 7.07885104 12.40378374 4 12 C4 15.3 4 18.6 4 22 C2.68 22 1.36 22 0 22 C0 14.74 0 7.48 0 0 Z M4 2 C4 4.64 4 7.28 4 10 C9.7974423 10.24428343 9.7974423 10.24428343 15 8 C14.65555119 5.52733235 14.65555119 5.52733235 14 3 C11.71294169 1.85647084 10.40735238 1.89665561 7.875 1.9375 C5.956875 1.9684375 5.956875 1.9684375 4 2 Z " fill="#000000" transform="translate(678,721)"/>
<path d="M0 0 C3.86217948 1.67920847 5.43904552 3.14553783 7 7 C7.68575947 11.90397759 7.74079295 15.79003819 5.125 20.0625 C1.40476421 23.45447969 -1.62253268 23.40981162 -6.515625 23.33203125 C-9 23 -9 23 -12.0625 21.0625 C-14.60497216 17.04375368 -15.2920965 13.73196331 -15 9 C-12.29106451 1.3009202 -8.08801556 -1.18988698 0 0 Z M-11 8 C-11.68010386 12.23175736 -11.48450361 14.20402978 -9.25 17.875 C-6.54110078 20.50985522 -6.54110078 20.50985522 -3 21 C0.11093731 19.66674115 1.63794414 18.60891212 3.375 15.6875 C4.15024358 12.35395262 3.97718613 10.28055344 3 7 C1.00258579 4.28922358 -0.14657003 3.19694538 -3.4375 2.4375 C-7.25716828 3.27596377 -8.68802361 4.89534599 -11 8 Z " fill="#000000" transform="translate(610,720)"/>
<path d="M0 0 C1.65 0 3.3 0 5 0 C6.3417678 3.26743656 7.67194359 6.53946908 9 9.8125 C9.3815625 10.74126953 9.763125 11.67003906 10.15625 12.62695312 C10.5171875 13.51962891 10.878125 14.41230469 11.25 15.33203125 C11.58515625 16.15421143 11.9203125 16.9763916 12.265625 17.82348633 C13 20 13 20 13 23 C11.68 23 10.36 23 9 23 C8.34 20.69 7.68 18.38 7 16 C4.03 16 1.06 16 -2 16 C-2.66 18.31 -3.32 20.62 -4 23 C-5.32 23 -6.64 23 -8 23 C-5.81659819 15.13620323 -3.00714974 7.58324716 0 0 Z M2 6 C0.515 9.96 0.515 9.96 -1 14 C0.98 14 2.96 14 5 14 C4.45276317 10.62537285 3.9451 8.91765 2 6 Z " fill="#000000" transform="translate(341,720)"/>
<path d="M0 0 C5.61 0 11.22 0 17 0 C17 0.66 17 1.32 17 2 C12.71 2 8.42 2 4 2 C4 4.31 4 6.62 4 9 C7.96 9 11.92 9 16 9 C16 9.99 16 10.98 16 12 C12.04 12 8.08 12 4 12 C4 14.31 4 16.62 4 19 C8.62 19 13.24 19 18 19 C18 19.99 18 20.98 18 22 C12.06 22 6.12 22 0 22 C0 14.74 0 7.48 0 0 Z " fill="#000000" transform="translate(951,721)"/>
<path d="M0 0 C1.32 0 2.64 0 4 0 C4.06058594 1.13179687 4.12117187 2.26359375 4.18359375 3.4296875 C4.26799917 4.91147145 4.35264717 6.3932416 4.4375 7.875 C4.47681641 8.62136719 4.51613281 9.36773438 4.55664062 10.13671875 C4.71573624 14.19986864 4.71573624 14.19986864 6 18 C8.9737344 19.09036928 9.88407501 19.03864166 13 18 C14.585869 14.828262 14.37866445 11.36486178 14.5625 7.875 C14.60568359 7.12089844 14.64886719 6.36679687 14.69335938 5.58984375 C14.7994832 3.72678112 14.90025001 1.86341476 15 0 C16.32 0 17.64 0 19 0 C19.08132187 2.56314499 19.14064175 5.12368418 19.1875 7.6875 C19.21263672 8.40873047 19.23777344 9.12996094 19.26367188 9.87304688 C19.32679275 14.48087064 18.79834732 17.31351222 16 21 C14.26780072 22.73219928 11.97973192 22.21291761 9.625 22.25 C8.64789062 22.27578125 7.67078125 22.3015625 6.6640625 22.328125 C4 22 4 22 2.2109375 20.671875 C-0.63661286 16.74041837 -0.11495662 12.43271787 -0.0625 7.8125 C-0.05798828 7.06291016 -0.05347656 6.31332031 -0.04882812 5.54101562 C-0.03706354 3.69397617 -0.01912865 1.84697787 0 0 Z " fill="#000000" transform="translate(870,721)"/>
<path d="M0 0 C1.32 0 2.64 0 4 0 C4.06058594 1.13179687 4.12117187 2.26359375 4.18359375 3.4296875 C4.26799917 4.91147145 4.35264717 6.3932416 4.4375 7.875 C4.47681641 8.62136719 4.51613281 9.36773438 4.55664062 10.13671875 C4.71573624 14.19986864 4.71573624 14.19986864 6 18 C8.9737344 19.09036928 9.88407501 19.03864166 13 18 C14.585869 14.828262 14.37866445 11.36486178 14.5625 7.875 C14.60568359 7.12089844 14.64886719 6.36679687 14.69335938 5.58984375 C14.7994832 3.72678112 14.90025001 1.86341476 15 0 C16.32 0 17.64 0 19 0 C19.08132187 2.56314499 19.14064175 5.12368418 19.1875 7.6875 C19.21263672 8.40873047 19.23777344 9.12996094 19.26367188 9.87304688 C19.32679275 14.48087064 18.79834732 17.31351222 16 21 C14.26780072 22.73219928 11.97973192 22.21291761 9.625 22.25 C8.64789062 22.27578125 7.67078125 22.3015625 6.6640625 22.328125 C4 22 4 22 2.2109375 20.671875 C-0.63661286 16.74041837 -0.11495662 12.43271787 -0.0625 7.8125 C-0.05798828 7.06291016 -0.05347656 6.31332031 -0.04882812 5.54101562 C-0.03706354 3.69397617 -0.01912865 1.84697787 0 0 Z " fill="#000000" transform="translate(792,721)"/>
<path d="M0 0 C1.32 0 2.64 0 4 0 C4.06058594 1.13179687 4.12117187 2.26359375 4.18359375 3.4296875 C4.26799917 4.91147145 4.35264717 6.3932416 4.4375 7.875 C4.47681641 8.62136719 4.51613281 9.36773438 4.55664062 10.13671875 C4.71573624 14.19986864 4.71573624 14.19986864 6 18 C8.9737344 19.09036928 9.88407501 19.03864166 13 18 C14.585869 14.828262 14.37866445 11.36486178 14.5625 7.875 C14.60568359 7.12089844 14.64886719 6.36679687 14.69335938 5.58984375 C14.7994832 3.72678112 14.90025001 1.86341476 15 0 C16.32 0 17.64 0 19 0 C19.08132187 2.56314499 19.14064175 5.12368418 19.1875 7.6875 C19.21263672 8.40873047 19.23777344 9.12996094 19.26367188 9.87304688 C19.32679275 14.48087064 18.79834732 17.31351222 16 21 C14.26780072 22.73219928 11.97973192 22.21291761 9.625 22.25 C8.64789062 22.27578125 7.67078125 22.3015625 6.6640625 22.328125 C4 22 4 22 2.2109375 20.671875 C-0.63661286 16.74041837 -0.11495662 12.43271787 -0.0625 7.8125 C-0.05798828 7.06291016 -0.05347656 6.31332031 -0.04882812 5.54101562 C-0.03706354 3.69397617 -0.01912865 1.84697787 0 0 Z " fill="#000000" transform="translate(638,721)"/>
<path d="M0 0 C1.32 0 2.64 0 4 0 C4.06058594 1.13179687 4.12117187 2.26359375 4.18359375 3.4296875 C4.26799917 4.91147145 4.35264717 6.3932416 4.4375 7.875 C4.47681641 8.62136719 4.51613281 9.36773438 4.55664062 10.13671875 C4.71573624 14.19986864 4.71573624 14.19986864 6 18 C8.9737344 19.09036928 9.88407501 19.03864166 13 18 C14.585869 14.828262 14.37866445 11.36486178 14.5625 7.875 C14.60568359 7.12089844 14.64886719 6.36679687 14.69335938 5.58984375 C14.7994832 3.72678112 14.90025001 1.86341476 15 0 C16.32 0 17.64 0 19 0 C19.08132187 2.56314499 19.14064175 5.12368418 19.1875 7.6875 C19.21263672 8.40873047 19.23777344 9.12996094 19.26367188 9.87304688 C19.32679275 14.48087064 18.79834732 17.31351222 16 21 C14.26780072 22.73219928 11.97973192 22.21291761 9.625 22.25 C8.64789063 22.27578125 7.67078125 22.3015625 6.6640625 22.328125 C4 22 4 22 2.2109375 20.671875 C-0.63661286 16.74041837 -0.11495662 12.43271787 -0.0625 7.8125 C-0.05798828 7.06291016 -0.05347656 6.31332031 -0.04882812 5.54101562 C-0.03706354 3.69397617 -0.01912865 1.84697787 0 0 Z " fill="#000000" transform="translate(155,721)"/>
<path d="M0 0 C3 1.8125 3 1.8125 5 4 C5 4.99 5 5.98 5 7 C2.03824877 6.38722388 0.61941217 5.74627478 -2 4 C-5.07665027 4.08221709 -5.07665027 4.08221709 -8 5 C-10.46270288 8.69405432 -10.22985417 10.63277072 -10 15 C-9.57145005 17.31036915 -9.57145005 17.31036915 -9 19 C-4.46859347 19.93380961 -4.46859347 19.93380961 0 19 C0.66 18.01 1.32 17.02 2 16 C2.99 16 3.98 16 5 16 C4.6875 18.375 4.6875 18.375 4 21 C-0.25451655 23.83634436 -4.00822671 23.74836793 -9 23 C-12.21888045 20.96356543 -13.58268069 19.53851719 -14.5859375 15.83984375 C-15.24255721 11.46967479 -15.42181018 7.85287984 -13 4 C-9.13818946 -0.20255853 -5.47443401 -1.1147537 0 0 Z " fill="#000000" transform="translate(129,720)"/>
<path d="M0 0 C2.328125 0.125 2.328125 0.125 5 1 C6.546875 3.6875 6.546875 3.6875 7.75 7 C8.90583228 10.77808544 8.90583228 10.77808544 11 14 C11.30292969 13.07316406 11.60585938 12.14632812 11.91796875 11.19140625 C12.33691406 9.99386719 12.75585938 8.79632812 13.1875 7.5625 C13.59355469 6.36753906 13.99960937 5.17257812 14.41796875 3.94140625 C16 1 16 1 18.67578125 0.08984375 C19.82626953 0.04537109 19.82626953 0.04537109 21 0 C18.60309494 7.44302097 15.84737559 14.71837152 13 22 C11.35 22 9.7 22 8 22 C6.66399387 18.52185372 5.33164358 15.04231861 4 11.5625 C3.6184375 10.56927734 3.236875 9.57605469 2.84375 8.55273438 C2.4828125 7.60849609 2.121875 6.66425781 1.75 5.69140625 C1.41484375 4.81685791 1.0796875 3.94230957 0.734375 3.04125977 C0 1 0 1 0 0 Z " fill="#000000" transform="translate(294,721)"/>
<path d="M0 0 C5.28 0 10.56 0 16 0 C16 0.66 16 1.32 16 2 C12.04 2 8.08 2 4 2 C4 4.31 4 6.62 4 9 C7.63 9 11.26 9 15 9 C15 9.99 15 10.98 15 12 C11.37 12 7.74 12 4 12 C4 15.3 4 18.6 4 22 C2.68 22 1.36 22 0 22 C0 14.74 0 7.48 0 0 Z " fill="#000000" transform="translate(755,721)"/>
<path d="M0 0 C2.1875 -0.4375 2.1875 -0.4375 5 0 C6.98441782 2.13995327 8.5023304 4.50175965 10 7 C13.42578949 3.82460444 13.42578949 3.82460444 16 0 C17.65 0 19.3 0 21 0 C19.05831344 3.46729742 17.22174311 6.7085662 14.8125 9.875 C12.48096084 13.8948951 12.20344865 17.42240542 12 22 C11.01 22 10.02 22 9 22 C9.020625 21.40574219 9.04125 20.81148437 9.0625 20.19921875 C8.88002754 12.86610675 6.23519253 8.81668238 1.71484375 3.15234375 C0 1 0 1 0 0 Z " fill="#000000" transform="translate(555,721)"/>
<path d="M0 0 C1.32 0 2.64 0 4 0 C4 6.27 4 12.54 4 19 C7.63 19 11.26 19 15 19 C15 19.99 15 20.98 15 22 C10.05 22 5.1 22 0 22 C0 14.74 0 7.48 0 0 Z " fill="#000000" transform="translate(196,721)"/>
<path d="M0 0 C5.94 0 11.88 0 18 0 C18 0.66 18 1.32 18 2 C15.36 2 12.72 2 10 2 C10 8.6 10 15.2 10 22 C9.01 22 8.02 22 7 22 C7 15.4 7 8.8 7 2 C4.69 2 2.38 2 0 2 C0 1.34 0 0.68 0 0 Z " fill="#000000" transform="translate(831,721)"/>
<path d="M0 0 C5.94 0 11.88 0 18 0 C18 0.66 18 1.32 18 2 C15.36 2 12.72 2 10 2 C10 8.6 10 15.2 10 22 C9.01 22 8.02 22 7 22 C7 15.4 7 8.8 7 2 C4.69 2 2.38 2 0 2 C0 1.34 0 0.68 0 0 Z " fill="#000000" transform="translate(372,721)"/>
<path d="M0 0 C5.94 0 11.88 0 18 0 C18 0.66 18 1.32 18 2 C15.36 2 12.72 2 10 2 C10 8.6 10 15.2 10 22 C9.01 22 8.02 22 7 22 C7 15.4 7 8.8 7 2 C4.69 2 2.38 2 0 2 C0 1.34 0 0.68 0 0 Z " fill="#000000" transform="translate(230,721)"/>
<path d="M0 0 C1.32 0 2.64 0 4 0 C4 7.26 4 14.52 4 22 C2.68 22 1.36 22 0 22 C0 14.74 0 7.48 0 0 Z " fill="#000000" transform="translate(412,721)"/>
<path d="M0 0 C1.32 0 2.64 0 4 0 C4 7.26 4 14.52 4 22 C2.68 22 1.36 22 0 22 C0 14.74 0 7.48 0 0 Z " fill="#000000" transform="translate(270,721)"/>
</svg>
